REM DIRINDEX 1\2\5,1\2\6,1\2\7,1\2\8,1\3\9,1\3\10,1\3\11,1\4\12,1\4\13,1\4\14,1\4\15,1\4\16
REM DIRNAME folder01,folder02,folder03,folder04,folder05,folder06,folder07,folder08,folder09,folder10,folder11,folder12,folder13,folder14,folder15,folder16
TITLE ""
FILE "1200_sec02_0308_0315.mp3" MP3
  TRACK 01 AUDIO
    TITLE "0:"
    INDEX 01 00:00:00
  TRACK 02 AUDIO
    TITLE "12:cjc034_04870"
    INDEX 01 00:00:19
  TRACK 03 AUDIO
    TITLE "0:"
    INDEX 01 00:01:38
  TRACK 04 AUDIO
    TITLE "13:cjc034_04871"
    INDEX 01 00:01:71
  TRACK 05 AUDIO
    TITLE "0:"
    INDEX 01 00:04:09
  TRACK 06 AUDIO
    TITLE "14:cjc034_04872"
    INDEX 01 00:04:42
  TRACK 07 AUDIO
    TITLE "0:"
    INDEX 01 00:05:59
  TRACK 08 AUDIO
    TITLE "15:cjc034_04873"
    INDEX 01 00:06:18
  TRACK 09 AUDIO
    TITLE "0:"
    INDEX 01 00:10:08
  TRACK 10 AUDIO
    TITLE "12:cjc034_04874"
    INDEX 01 00:11:44
  TRACK 11 AUDIO
    TITLE "0:"
    INDEX 01 00:12:71
  TRACK 12 AUDIO
    TITLE "13:cjc034_04875"
    INDEX 01 00:13:28
  TRACK 13 AUDIO
    TITLE "0:"
    INDEX 01 00:17:00
  TRACK 14 AUDIO
    TITLE "14:cjc034_04876"
    INDEX 01 00:17:33
  TRACK 15 AUDIO
    TITLE "0:"
    INDEX 01 00:18:60
  TRACK 16 AUDIO
    TITLE "15:cjc034_04877"
    INDEX 01 00:19:16
  TRACK 17 AUDIO
    TITLE "0:"
    INDEX 01 00:23:12
  TRACK 18 AUDIO
    TITLE "12:cjc034_04878"
    INDEX 01 00:24:45
  TRACK 19 AUDIO
    TITLE "0:"
    INDEX 01 00:25:41
  TRACK 20 AUDIO
    TITLE "13:cjc034_04879"
    INDEX 01 00:26:07
  TRACK 21 AUDIO
    TITLE "0:"
    INDEX 01 00:28:64
  TRACK 22 AUDIO
    TITLE "14:cjc034_04880"
    INDEX 01 00:29:25
  TRACK 23 AUDIO
    TITLE "0:"
    INDEX 01 00:30:22
  TRACK 24 AUDIO
    TITLE "15:cjc034_04881"
    INDEX 01 00:30:63
  TRACK 25 AUDIO
    TITLE "0:"
    INDEX 01 00:33:24
  TRACK 26 AUDIO
    TITLE "12:cjc034_04882"
    INDEX 01 00:34:61
  TRACK 27 AUDIO
    TITLE "0:"
    INDEX 01 00:36:13
  TRACK 28 AUDIO
    TITLE "13:cjc034_04883"
    INDEX 01 00:36:46
  TRACK 29 AUDIO
    TITLE "0:"
    INDEX 01 00:39:25
  TRACK 30 AUDIO
    TITLE "14:cjc034_04884"
    INDEX 01 00:39:58
  TRACK 31 AUDIO
    TITLE "0:"
    INDEX 01 00:41:14
  TRACK 32 AUDIO
    TITLE "15:cjc034_04885"
    INDEX 01 00:41:45
  TRACK 33 AUDIO
    TITLE "0:"
    INDEX 01 00:45:37
  TRACK 34 AUDIO
    TITLE "12:cjc034_04886"
    INDEX 01 00:46:72
  TRACK 35 AUDIO
    TITLE "0:"
    INDEX 01 00:48:16
  TRACK 36 AUDIO
    TITLE "13:cjc034_04887"
    INDEX 01 00:48:48
  TRACK 37 AUDIO
    TITLE "0:"
    INDEX 01 00:49:69
  TRACK 38 AUDIO
    TITLE "14:cjc034_04888"
    INDEX 01 00:50:25
  TRACK 39 AUDIO
    TITLE "0:"
    INDEX 01 00:51:42
  TRACK 40 AUDIO
    TITLE "15:cjc034_04889"
    INDEX 01 00:52:02
  TRACK 41 AUDIO
    TITLE "0:"
    INDEX 01 00:55:67
  TRACK 42 AUDIO
    TITLE "12:cjc034_04890"
    INDEX 01 00:57:23
  TRACK 43 AUDIO
    TITLE "0:"
    INDEX 01 00:58:42
  TRACK 44 AUDIO
    TITLE "13:cjc034_04891"
    INDEX 01 00:59:06
  TRACK 45 AUDIO
    TITLE "0:"
    INDEX 01 01:01:33
  TRACK 46 AUDIO
    TITLE "14:cjc034_04892"
    INDEX 01 01:01:64
  TRACK 47 AUDIO
    TITLE "0:"
    INDEX 01 01:03:08
  TRACK 48 AUDIO
    TITLE "15:cjc034_04893"
    INDEX 01 01:03:45
  TRACK 49 AUDIO
    TITLE "0:"
    INDEX 01 01:08:17
  TRACK 50 AUDIO
    TITLE "12:cjc034_04894"
    INDEX 01 01:09:50
  TRACK 51 AUDIO
    TITLE "0:"
    INDEX 01 01:10:67
  TRACK 52 AUDIO
    TITLE "13:cjc034_04895"
    INDEX 01 01:11:25
  TRACK 53 AUDIO
    TITLE "0:"
    INDEX 01 01:12:24
  TRACK 54 AUDIO
    TITLE "14:cjc034_04896"
    INDEX 01 01:12:56
  TRACK 55 AUDIO
    TITLE "0:"
    INDEX 01 01:13:73
  TRACK 56 AUDIO
    TITLE "15:cjc034_04897"
    INDEX 01 01:14:31
  TRACK 57 AUDIO
    TITLE "0:"
    INDEX 01 01:18:00
  TRACK 58 AUDIO
    TITLE "12:cjc034_04898"
    INDEX 01 01:19:34
  TRACK 59 AUDIO
    TITLE "0:"
    INDEX 01 01:20:71
  TRACK 60 AUDIO
    TITLE "13:cjc034_04899"
    INDEX 01 01:21:31
  TRACK 61 AUDIO
    TITLE "0:"
    INDEX 01 01:22:56
  TRACK 62 AUDIO
    TITLE "14:cjc034_04900"
    INDEX 01 01:23:15
  TRACK 63 AUDIO
    TITLE "0:"
    INDEX 01 01:24:53
  TRACK 64 AUDIO
    TITLE "15:cjc034_04901"
    INDEX 01 01:25:11
  TRACK 65 AUDIO
    TITLE "0:"
    INDEX 01 01:28:47
